<svg width="67" height="40" viewBox="0 0 67 40" fill="none" xmlns="http://www.w3.org/2000/svg">
<path d="M0.806473 39.9023H6.82703e-05V36.3071H1.77891C2.57938 36.3071 3.09524 36.7569 3.09524 37.4542C3.09524 38.1515 2.56752 38.6284 1.75222 38.6284H0.806473V39.9023ZM0.806473 37.9885H1.64549C2.03091 37.9885 2.26216 37.7953 2.26216 37.4693C2.26216 37.1433 2.03091 36.9531 1.64549 36.9531H0.806473V37.9885Z" fill="#34398D"/>
<path d="M0 32.8254H11.3846V7.09157H6.93747V28.3126H4.41745V0.0128709H0V32.8254Z" fill="#34398D"/>
<path d="M13.8987 32.8254H19.5079C21.4083 32.8254 22.8106 32.3183 23.8008 31.2738C24.7911 30.2294 25.2832 28.8589 25.2832 27.087V0.0128709H19.6295C17.7558 0.0128709 16.3683 0.520001 15.381 1.56445C14.3938 2.6089 13.8987 3.97935 13.8987 5.75129V32.8254ZM19.5554 28.2975H18.3457V6.25239C18.3436 5.95143 18.3959 5.65265 18.4999 5.37095C18.5796 5.12688 18.7321 4.91423 18.9362 4.7627C19.1403 4.61117 19.3858 4.52833 19.6384 4.52573H20.8628V26.6312C20.8652 26.9429 20.8026 27.2516 20.679 27.5368C20.5897 27.7644 20.4355 27.9597 20.2363 28.0974C20.0371 28.2351 19.8021 28.309 19.5613 28.3095L19.5554 28.2975Z" fill="#34398D"/>
<path d="M27.8062 32.8276H39.1908V7.09379H34.7585V28.3118H32.2385V6.24253C32.237 5.85886 32.3531 5.48427 32.5705 5.17092C32.7143 4.96552 32.9055 4.79939 33.1274 4.68723C33.3492 4.57508 33.5948 4.52037 33.8424 4.52795H39.1789V0H33.5341C31.6574 0 30.2729 0.507132 29.2856 1.54856C28.2984 2.58999 27.8032 3.96347 27.8032 5.73842L27.8062 32.8276Z" fill="#34398D"/>
<path d="M41.7109 32.8254H47.3201C49.2146 32.8254 50.614 32.3032 51.6042 31.2316C52.5944 30.16 53.0865 28.7865 53.0865 27.087V0.0128709H48.6602V21.2339H46.1402V0.0128709H41.7109V25.7467H48.6602V26.8183C48.6725 27.1544 48.5835 27.4862 48.4052 27.7692C48.2902 27.9402 48.135 28.0792 47.9538 28.1735C47.7726 28.2679 47.5711 28.3146 47.3676 28.3095H41.7109V32.8254Z" fill="#34398D"/>
<path d="M55.6125 32.8272H66.9941V28.3143H63.5757L65.322 26.7265C65.8675 26.223 66.2899 25.5965 66.5553 24.8972C66.8598 24.0831 67.0097 23.2175 66.997 22.3465V0.00858161H61.3344C59.4607 0.00858161 58.0732 0.515714 57.086 1.55714C56.0987 2.59857 55.6036 3.97205 55.6036 5.747L55.6125 32.8272ZM61.2692 28.3143H60.0447V6.25414C60.0432 5.91359 60.0963 5.57507 60.2019 5.25195C60.2872 5.0213 60.4445 4.82552 60.6496 4.69465C60.8547 4.56379 61.0963 4.50506 61.3374 4.52748H62.5648V26.6329C62.5675 26.9444 62.5059 27.2529 62.3839 27.5385C62.2946 27.7658 62.1409 27.9609 61.9424 28.099C61.7439 28.2372 61.5096 28.3121 61.2692 28.3143Z" fill="#34398D"/>
<path d="M11.9865 39.9033H11.0764L10.264 38.554H9.51988V39.9033H8.71644V36.3081H10.519C11.7049 36.3081 11.8146 37.09 11.8146 37.425C11.821 37.6509 11.7538 37.8727 11.6235 38.0556C11.4932 38.2385 11.307 38.3724 11.0941 38.4363L11.9865 39.9033ZM9.51988 37.9231H10.4093C10.7977 37.9231 11.0022 37.7571 11.0022 37.4311C11.0022 37.1051 10.8036 36.9541 10.4093 36.9541H9.51988V37.9231Z" fill="#34398D"/>
<path d="M19.5465 40C18.3607 40 17.6046 39.2574 17.6046 38.1073C17.6046 36.9572 18.3666 36.2116 19.5465 36.2116C20.7265 36.2116 21.4884 36.9542 21.4884 38.1073C21.4884 39.2604 20.7176 40 19.5465 40ZM19.5465 36.8848C18.8647 36.8848 18.4407 37.3527 18.4407 38.1073C18.4407 38.862 18.8647 39.3148 19.5465 39.3148C20.2284 39.3148 20.6553 38.8469 20.6553 38.1073C20.6553 37.3678 20.2314 36.8848 19.5465 36.8848Z" fill="#34398D"/>
<path d="M29.1404 39.9033H28.334V36.9934H27.1066V36.3081H30.3678V36.9934H29.1433L29.1404 39.9033Z" fill="#34398D"/>
<path d="M37.913 39.9992C36.7271 39.9992 35.974 39.2566 35.974 38.1065C35.974 36.9564 36.7478 36.1987 37.913 36.1987C39.0781 36.1987 39.8549 36.9413 39.8549 38.0945C39.8549 39.2476 39.0989 39.9992 37.913 39.9992ZM37.913 36.884C37.2311 36.884 36.8071 37.3519 36.8071 38.1065C36.8071 38.8612 37.2311 39.314 37.913 39.314C38.5949 39.314 39.0218 38.8461 39.0218 38.1065C39.0218 37.367 38.6097 36.884 37.913 36.884Z" fill="#34398D"/>
<path d="M47.4001 40C46.2409 40 45.4938 39.2574 45.4938 38.1073C45.4938 36.9572 46.2498 36.2116 47.4238 36.2116C48.3784 36.2116 49.0188 36.6916 49.1789 37.5247V37.5972L48.3547 37.7209V37.6545C48.3189 37.4294 48.201 37.2264 48.0246 37.0859C47.8482 36.9455 47.6262 36.8779 47.4031 36.8968C46.733 36.8968 46.318 37.3587 46.318 38.1043C46.318 38.8499 46.7508 39.3118 47.4179 39.3118C47.6368 39.3285 47.8544 39.2641 48.0303 39.1304C48.2063 38.9967 48.3289 38.8027 48.3755 38.5843L48.3903 38.5178L49.1937 38.6778L49.176 38.7533C48.9506 39.5563 48.3192 40 47.4001 40Z" fill="#34398D"/>
<path d="M56.7539 40C55.568 40 54.812 39.2574 54.812 38.1073C54.812 36.9572 55.574 36.2116 56.7539 36.2116C57.9339 36.2116 58.6929 36.9542 58.6929 38.1073C58.6929 39.2604 57.9309 40 56.7539 40ZM56.7539 36.8848C56.0691 36.8848 55.6451 37.3527 55.6451 38.1073C55.6451 38.862 56.0691 39.3148 56.7539 39.3148C57.4388 39.3148 57.8598 38.8469 57.8598 38.1073C57.8598 37.3678 57.4358 36.8848 56.7539 36.8848Z" fill="#34398D"/>
<path d="M67 39.9033H64.314V36.3081H65.1174V39.2181H67V39.9033Z" fill="#34398D"/>
</svg>
